texas-west
1
   -98.90581   32.91189
   -99.05203   32.91192
   -99.07501   32.03465
   -99.15154   32.03474
   -99.15855   31.40767
   -99.23333   31.42904
   -99.30471   31.35452
   -99.40839   31.40704
   -99.53823   31.37031
   -99.56947   31.44472
   -99.58365   31.44788
   -99.59252   31.39624
   -99.73996   31.48130
   -99.73696   31.48609
   -99.76956   31.48535
   -99.77755   31.50236
   -99.75131   31.53257
   -100.06624   31.53518
   -100.07166   30.24551
   -100.65527   30.24344
   -100.65413   29.41340
   -100.71060   29.21828
   -100.77413   29.20079
   -100.78409   29.19333
   -100.78720   29.21211
   -100.84320   29.25945
   -100.88260   29.27742
   -100.89910   29.30526
   -100.94270   29.33071
   -100.94870   29.34223
   -100.96320   29.34388
   -101.01620   29.36841
   -101.05160   29.41986
   -101.07940   29.45335
   -101.15250   29.46830
   -101.27160   29.52268
   -101.46320   29.75215
   -102.64600   29.72279
   -102.85390   29.21441
   -103.12540   28.94289
   -103.40910   28.99972
   -103.89440   29.25270
   -104.17620   29.37554
   -104.26230   29.48120
   -104.38560   29.53314
   -104.40620   29.56987
   -104.48070   29.60152
   -104.53460   29.64151
   -104.62070   29.81920
   -104.72010   29.97058
   -104.72400   30.21437
   -104.87000   30.38295
   -104.92220   30.55783
   -105.12440   30.72546
   -105.40490   30.84358
   -105.43630   30.89176
   -105.58000   30.99291
   -105.63940   31.08793
   -105.77160   31.16111
   -105.94870   31.31874
   -105.95970   31.34836
   -106.00910   31.38002
   -106.11490   31.40171
   -106.21480   31.46469
   -106.25560   31.53992
   -106.28260   31.55929
   -106.30620   31.61130
   -106.30800   31.62240
   -106.33550   31.65864
   -106.35350   31.69560
   -106.36070   31.70017
   -106.37790   31.71661
   -106.38150   31.72999
   -106.40890   31.74522
   -106.42280   31.75198
   -106.43850   31.75408
   -106.45160   31.76294
   -106.46470   31.75923
   -106.46910   31.75094
   -106.48660   31.74484
   -106.51380   31.76209
   -106.52960   31.78038
   -106.57800   31.80800
   -106.60580   31.82332
   -106.61720   31.84461
   -106.63740   31.86429
   -106.63460   31.88203
   -106.63980   31.88891
   -106.64940   31.89672
   -106.62970   31.93701
   -106.64480   31.98828
   -106.62060   32.00211
   -104.84350   32.00302
   -103.06960   32.00371
   -103.07000   32.61191
   -103.06620   33.15595
   -103.04750   34.35888
   -103.04470   36.50260
   -103.00470   36.50329
   -103.00480   36.52145
   -99.96781   36.51778
   -99.98637   34.58982
   -99.91081   34.57897
   -99.82074   34.49790
   -99.69671   34.38925
   -99.60269   34.38073
   -99.58926   34.41937
   -99.53080   34.42526
   -99.42019   34.38532
   -99.38780   34.46388
   -99.35434   34.45817
   -99.25982   34.40758
   -99.18320   34.32699
   -99.17771   34.23224
   -98.98804   34.22797
   -98.90744   34.20078
   -98.90581   32.91189
END
END
