texas-north
1
   -95.79536   33.81885
   -95.81867   32.93430
   -95.91504   32.93465
   -95.93250   32.89167
   -95.84331   32.82604
   -95.85481   32.79152
   -96.03154   32.79310
   -96.03045   32.31302
   -96.25502   32.30991
   -96.25118   32.29708
   -96.21243   32.29332
   -96.17430   32.25179
   -96.07930   32.27270
   -96.06539   32.25232
   -96.10168   32.19812
   -96.05003   32.18684
   -96.06337   32.13083
   -96.02770   32.12388
   -95.99950   31.99143
   -96.48807   31.75041
   -96.71035   31.76899
   -96.94738   31.65116
   -97.05257   31.80572
   -97.62029   31.53026
   -97.70469   31.65314
   -97.78090   31.61442
   -98.02008   31.96048
   -98.14214   31.90009
   -98.09040   31.82506
   -98.47703   31.62661
   -98.51420   31.67697
   -98.72398   31.64754
   -98.74113   31.58152
   -99.01032   31.41880
   -99.03874   31.43617
   -99.08587   31.40053
   -99.24831   31.42955
   -99.24054   32.12484
   -99.16268   32.12475
   -99.13971   33.00193
   -98.99593   33.00191
   -98.99744   34.19978
   -98.99973   34.22823
   -98.98804   34.22797
   -98.74471   34.14590
   -98.64912   34.17086
   -98.57643   34.16101
   -98.47452   34.07361
   -98.37570   34.16580
   -98.17509   34.12553
   -98.13559   34.15969
   -98.09039   34.15897
   -98.08898   34.01376
   -97.97916   34.01179
   -97.94203   33.99600
   -97.95783   33.88735
   -97.85317   33.86871
   -97.77296   33.93412
   -97.65953   34.01795
   -97.23930   33.92741
   -97.15759   33.89664
   -97.16309   33.75089
   -97.11296   33.73062
   -97.09717   33.85588
   -96.99112   33.96383
   -96.91418   33.96928
   -96.86788   33.87186
   -96.83107   33.87793
   -96.78698   33.86815
   -96.73723   33.83102
   -96.68667   33.90964
   -96.66321   33.91976
   -96.58473   33.89547
   -96.58433   33.88400
   -96.62680   33.84520
   -96.52595   33.82383
   -96.49460   33.79091
   -96.42580   33.78628
   -96.33688   33.69707
   -96.29500   33.77829
   -96.19780   33.75755
   -96.18314   33.81032
   -96.15634   33.83910
   -95.93892   33.88964
   -95.71193   33.90726
   -95.79536   33.81885
END
END
