texas-east
1
   -96.45606   30.49496
   -96.46288   30.55671
   -96.50205   30.57779
   -96.66544   30.60592
   -96.61569   30.72299
   -96.48857   30.77984
   -96.38337   30.94248
   -96.28916   31.01149
   -96.37664   31.24591
   -96.36585   31.40372
   -96.30369   31.43218
   -96.56306   31.81377
   -96.10211   32.04117
   -96.10333   32.04693
   -96.17264   32.06044
   -96.15883   32.11847
   -96.25000   32.13837
   -96.22568   32.17468
   -96.25542   32.20707
   -96.32007   32.21334
   -96.33584   32.26607
   -96.54838   32.33532
   -96.53918   32.39599
   -96.12065   32.40178
   -96.12174   32.88391
   -96.03311   32.88312
   -95.97553   33.02488
   -95.90632   33.02462
   -95.88442   33.85561
   -95.84546   33.89690
   -95.64566   33.91241
   -95.59393   33.94621
   -95.54415   33.93880
   -95.53831   33.90405
   -95.30760   33.89735
   -95.22108   33.97298
   -95.04942   33.91958
   -95.04702   33.87640
   -94.95655   33.87227
   -94.85012   33.76045
   -94.78678   33.76459
   -94.64584   33.70007
   -94.56928   33.68721
   -94.45066   33.64180
   -94.37222   33.59289
   -94.16142   33.60204
   -94.06460   33.58946
   -94.03954   33.55842
   -94.04099   33.46632
   -94.04194   33.40393
   -94.04057   33.01838
   -94.03979   32.79067
   -94.04021   32.00651
   -94.01774   31.99629
   -94.00452   31.97430
   -93.97413   31.93716
   -93.92761   31.91531
   -93.89294   31.89855
   -93.81226   31.78597
   -93.78376   31.71357
   -93.77552   31.56625
   -93.70514   31.51036
   -93.71647   31.48958
   -93.68969   31.44507
   -93.63407   31.37445
   -93.61862   31.28295
   -93.57983   31.20311
   -93.52593   31.18490
   -93.49441   31.03441
   -93.54715   30.81031
   -93.67424   30.58650
   -93.69209   30.43506
   -93.69827   30.29050
   -93.68317   30.14008
   -93.69141   30.05602
   -93.88847   29.78792
   -93.74085   29.53404
   -93.01897   25.69944
   -94.71704   25.69551
   -96.28656   25.87451
   -96.28656   28.26753
   -96.43115   28.35951
   -96.36752   28.64822
   -96.35480   28.94321
   -96.71614   29.25504
   -96.38476   29.43974
   -96.34572   29.54087
   -96.25856   29.61955
   -96.29133   29.63312
   -96.36959   29.78274
   -96.42479   29.77854
   -96.56857   29.87502
   -96.68000   30.05167
   -96.61340   30.11459
   -96.28354   30.14249
   -96.24577   30.12980
   -96.27839   30.16632
   -96.27530   30.17437
   -96.19548   30.18306
   -96.19153   30.26554
   -96.13058   30.26141
   -96.13303   30.27477
   -96.18681   30.29123
   -96.20413   30.33661
   -96.27315   30.30868
   -96.36424   30.36119
   -96.33050   30.40964
   -96.41666   30.49635
   -96.45606   30.49496
END
END
