texas-south
1
   -99.50449   31.52245
   -99.49350   31.49628
   -99.50284   31.54313
   -99.49284   31.55071
   -99.32356   31.46496
   -99.26078   31.53049
   -99.19273   31.51104
   -99.10877   31.49605
   -99.04411   31.54495
   -99.01005   31.52412
   -98.81903   31.63959
   -98.79598   31.72832
   -98.47363   31.77354
   -98.45006   31.74161
   -98.22267   31.85833
   -98.27529   31.93463
   -97.99027   32.07564
   -97.75156   31.73027
   -97.67514   31.76910
   -97.58993   31.64502
   -97.02191   31.92063
   -96.91714   31.76670
   -96.72790   31.86077
   -96.47162   31.83935
   -96.16938   31.39469
   -96.27971   31.34417
   -96.28552   31.25916
   -96.18102   30.97913
   -96.31681   30.87968
   -96.42748   30.70857
   -96.51191   30.67081
   -96.47232   30.66400
   -96.37860   30.61356
   -96.37576   30.58784
   -96.29562   30.59065
   -96.31855   30.52529
   -96.22081   30.42694
   -96.15277   30.45447
   -96.11841   30.36442
   -96.05438   30.34482
   -96.03409   30.23418
   -96.07340   30.16733
   -96.10602   30.16954
   -96.10880   30.11156
   -96.06267   30.05992
   -96.15448   30.00417
   -96.29454   30.05124
   -96.55920   30.02886
   -96.50261   29.93914
   -96.40052   29.87064
   -96.31731   29.87697
   -96.22672   29.70378
   -96.09251   29.64821
   -96.26948   29.48844
   -96.31252   29.37697
   -96.55990   29.23908
   -96.26301   28.98288
   -96.27794   28.63651
   -96.32970   28.40164
   -96.19656   28.31694
   -96.19656   25.86424
   -96.86662   25.94066
   -97.14489   25.94631
   -97.34196   25.90957
   -97.35054   25.86386
   -97.36839   25.83203
   -97.40788   25.83111
   -97.46092   25.85212
   -97.46264   25.87374
   -97.47500   25.87343
   -97.48632   25.87637
   -97.50023   25.87946
   -97.49800   25.89513
   -97.51109   25.88509
   -97.52302   25.88440
   -97.54778   25.91868
   -97.58726   25.92949
   -97.61387   25.96592
   -97.66897   26.01483
   -97.78158   26.02362
   -97.86518   26.04984
   -97.93350   26.04953
   -97.95033   26.05971
   -97.96148   26.04907
   -98.06980   26.03226
   -98.19099   26.04907
   -98.25090   26.07066
   -98.26773   26.08546
   -98.27313   26.09433
   -98.28936   26.10211
   -98.30481   26.09988
   -98.33227   26.12554
   -98.34292   26.14912
   -98.38686   26.15390
   -98.47767   26.19657
   -98.58341   26.23076
   -98.59663   26.24955
   -98.66495   26.23015
   -98.70100   26.26155
   -98.72830   26.27233
   -98.81433   26.34720
   -98.89687   26.35004
   -98.94733   26.36742
   -98.98321   26.38818
   -99.01686   26.38956
   -99.02389   26.40448
   -99.03694   26.41047
   -99.05565   26.39571
   -99.08638   26.39356
   -99.11917   26.43230
   -99.10011   26.47949
   -99.17633   26.54124
   -99.23607   26.72813
   -99.33460   26.87523
   -99.45236   27.01601
   -99.46129   27.06891
   -99.45168   27.22304
   -99.54746   27.31093
   -99.49099   27.41079
   -99.49957   27.43806
   -99.49554   27.45604
   -99.48644   27.47112
   -99.48197   27.48254
   -99.49004   27.49381
   -99.50249   27.49875
   -99.53073   27.49388
   -99.52892   27.52920
   -99.51748   27.56426
   -99.53210   27.57859
   -99.54549   27.60445
   -99.57999   27.59974
   -99.66951   27.63183
   -99.72599   27.66346
   -99.75758   27.70876
   -99.84993   27.76573
   -99.88306   27.80067
   -100.00510   27.99622
   -100.29210   28.24935
   -100.36120   28.38883
   -100.35400   28.43034
   -100.50810   28.66137
   -100.51370   28.71393
   -100.56900   28.81072
   -100.62210   28.89428
   -100.65060   28.91232
   -100.66910   29.07327
   -100.77900   29.16266
   -100.78720   29.21211
   -100.84320   29.25945
   -100.84489   29.26022
   -100.81447   29.28303
   -100.78305   29.29169
   -100.74414   29.42610
   -100.74539   30.33312
   -100.16128   30.33519
   -100.15586   31.62592
   -99.69366   31.62209
   -99.62495   31.57864
   -99.57765   31.57972
   -99.57511   31.57524
   -99.59544   31.54271
   -99.50449   31.52245
END
END
